<svg xmlns="http://www.w3.org/2000/svg" width="14" height="14" fill="none" viewBox="0 0 14 14"><g filter="url(#filter0_ii)"><path fill="#fff" fill-rule="evenodd" d="M12.4446 0H1.55557C0.696454 0 0 0.696454 0 1.55557V12.4446C0 13.3037 0.696454 14.0002 1.55557 14.0002H1.67569L9.97656 5.37588C10.1462 5.1996 10.3803 5.1 10.625 5.1C10.8697 5.1 11.1038 5.1996 11.2734 5.37588L14.0002 8.20884V1.55557C14.0002 0.696454 13.3037 0 12.4446 0ZM12.4446 14.0002H4.174L10.625 7.29782L14.0002 10.8045V12.4446C14.0002 13.3037 13.3037 14.0002 12.4446 14.0002ZM6 4.5C6 5.32843 5.32843 6 4.5 6C3.67157 6 3 5.32843 3 4.5C3 3.67157 3.67157 3 4.5 3C5.32843 3 6 3.67157 6 4.5Z" clip-rule="evenodd"/></g><defs><filter id="filter0_ii" width="14" height="17" x="0" y="-1" color-interpolation-filters="sRGB" filterUnits="userSpaceOnUse"><feFlood flood-opacity="0" result="BackgroundImageFix"/><feBlend in="SourceGraphic" in2="BackgroundImageFix" mode="normal" result="shape"/><feColorMatrix in="SourceAlpha" result="hardAlpha" type="matrix" values="0 0 0 0 0 0 0 0 0 0 0 0 0 0 0 0 0 0 127 0"/><feOffset dy="-2"/><feGaussianBlur stdDeviation=".5"/><feComposite in2="hardAlpha" k2="-1" k3="1" operator="arithmetic"/><feColorMatrix type="matrix" values="0 0 0 0 0 0 0 0 0 0 0 0 0 0 0 0 0 0 0.05 0"/><feBlend in2="shape" mode="normal" result="effect1_innerShadow"/><feColorMatrix in="SourceAlpha" result="hardAlpha" type="matrix" values="0 0 0 0 0 0 0 0 0 0 0 0 0 0 0 0 0 0 127 0"/><feOffset dy="2"/><feGaussianBlur stdDeviation="1"/><feComposite in2="hardAlpha" k2="-1" k3="1" operator="arithmetic"/><feColorMatrix type="matrix" values="0 0 0 0 1 0 0 0 0 1 0 0 0 0 1 0 0 0 0.05 0"/><feBlend in2="effect1_innerShadow" mode="normal" result="effect2_innerShadow"/></filter></defs></svg>