<svg xmlns="http://www.w3.org/2000/svg" width="12" height="16" fill="none" viewBox="0 0 12 16"><g filter="url(#filter0_ii)"><path fill="#A0A5D0" fill-rule="evenodd" d="M1.9375 0.121094H10.0625C10.96 0.121094 11.6875 0.826584 11.6875 1.69685V14.3029C11.6875 15.1732 10.96 15.8787 10.0625 15.8787H1.9375C1.04004 15.8787 0.3125 15.1732 0.3125 14.3029V1.69685C0.3125 0.826584 1.04004 0.121094 1.9375 0.121094ZM6 11.4773C5.30964 11.4773 4.75 12.0369 4.75 12.7273C4.75 13.4177 5.30964 13.9773 6 13.9773H6.00839C6.69874 13.9773 7.25839 13.4177 7.25839 12.7273C7.25839 12.0369 6.69874 11.4773 6.00839 11.4773H6Z" clip-rule="evenodd"/></g><defs><filter id="filter0_ii" width="11.375" height="18.758" x=".313" y="-.879" color-interpolation-filters="sRGB" filterUnits="userSpaceOnUse"><feFlood flood-opacity="0" result="BackgroundImageFix"/><feBlend in="SourceGraphic" in2="BackgroundImageFix" mode="normal" result="shape"/><feColorMatrix in="SourceAlpha" result="hardAlpha" type="matrix" values="0 0 0 0 0 0 0 0 0 0 0 0 0 0 0 0 0 0 127 0"/><feOffset dy="-2"/><feGaussianBlur stdDeviation=".5"/><feComposite in2="hardAlpha" k2="-1" k3="1" operator="arithmetic"/><feColorMatrix type="matrix" values="0 0 0 0 0 0 0 0 0 0 0 0 0 0 0 0 0 0 0.05 0"/><feBlend in2="shape" mode="normal" result="effect1_innerShadow"/><feColorMatrix in="SourceAlpha" result="hardAlpha" type="matrix" values="0 0 0 0 0 0 0 0 0 0 0 0 0 0 0 0 0 0 127 0"/><feOffset dy="2"/><feGaussianBlur stdDeviation="1"/><feComposite in2="hardAlpha" k2="-1" k3="1" operator="arithmetic"/><feColorMatrix type="matrix" values="0 0 0 0 1 0 0 0 0 1 0 0 0 0 1 0 0 0 0.05 0"/><feBlend in2="effect1_innerShadow" mode="normal" result="effect2_innerShadow"/></filter></defs></svg>