<svg xmlns="http://www.w3.org/2000/svg" width="19" height="18" fill="none" viewBox="0 0 19 18"><g filter="url(#filter0_ii)"><path fill="#4B4D57" d="M16.1016 8.13407C16.7682 8.51897 16.7682 9.48122 16.1016 9.86612L6.50156 15.4087C5.8349 15.7936 5.00156 15.3125 5.00156 14.5427L5.00156 3.45753C5.00156 2.68773 5.8349 2.20661 6.50156 2.59151L16.1016 8.13407Z"/><path fill="#A0A5D0" d="M16.1016 8.13407C16.7682 8.51897 16.7682 9.48122 16.1016 9.86612L6.50156 15.4087C5.8349 15.7936 5.00156 15.3125 5.00156 14.5427L5.00156 3.45753C5.00156 2.68773 5.8349 2.20661 6.50156 2.59151L16.1016 8.13407Z"/><rect width="2.4" height="14.4" x="16.402" y="1.8" fill="#4B4D57" rx="1.2"/><rect width="2.4" height="14.4" x="16.402" y="1.8" fill="#A0A5D0" rx="1.2"/></g><defs><filter id="filter0_ii" width="13.802" height="17.4" x="5" y=".8" color-interpolation-filters="sRGB" filterUnits="userSpaceOnUse"><feFlood flood-opacity="0" result="BackgroundImageFix"/><feBlend in="SourceGraphic" in2="BackgroundImageFix" mode="normal" result="shape"/><feColorMatrix in="SourceAlpha" result="hardAlpha" type="matrix" values="0 0 0 0 0 0 0 0 0 0 0 0 0 0 0 0 0 0 127 0"/><feOffset dy="-2"/><feGaussianBlur stdDeviation=".5"/><feComposite in2="hardAlpha" k2="-1" k3="1" operator="arithmetic"/><feColorMatrix type="matrix" values="0 0 0 0 0 0 0 0 0 0 0 0 0 0 0 0 0 0 0.05 0"/><feBlend in2="shape" mode="normal" result="effect1_innerShadow"/><feColorMatrix in="SourceAlpha" result="hardAlpha" type="matrix" values="0 0 0 0 0 0 0 0 0 0 0 0 0 0 0 0 0 0 127 0"/><feOffset dy="2"/><feGaussianBlur stdDeviation="1"/><feComposite in2="hardAlpha" k2="-1" k3="1" operator="arithmetic"/><feColorMatrix type="matrix" values="0 0 0 0 1 0 0 0 0 1 0 0 0 0 1 0 0 0 0.05 0"/><feBlend in2="effect1_innerShadow" mode="normal" result="effect2_innerShadow"/></filter></defs></svg>