<svg xmlns="http://www.w3.org/2000/svg" width="17" height="16" fill="none" viewBox="0 0 17 16"><g filter="url(#filter0_ii)"><path fill="#A1A6D0" d="M7.60268 0.824297C7.96904 0.0794581 9.03096 0.0794584 9.39732 0.824297L11.0536 4.19158C11.1993 4.48776 11.4817 4.69297 11.8084 4.74L15.5227 5.27467C16.3443 5.39294 16.6725 6.40288 16.0773 6.98148L13.3867 9.59724C13.15 9.82732 13.0421 10.1594 13.0983 10.4846L13.7376 14.1823C13.879 15.0003 13.0199 15.6245 12.2857 15.2372L8.96652 13.4866C8.67457 13.3326 8.32543 13.3326 8.03348 13.4866L4.71429 15.2372C3.98008 15.6245 3.12098 15.0003 3.26238 14.1823L3.90166 10.4846C3.95789 10.1594 3.85001 9.82732 3.61334 9.59724L0.922684 6.98148C0.327514 6.40288 0.655664 5.39294 1.47726 5.27467L5.19155 4.74C5.51826 4.69297 5.80071 4.48776 5.9464 4.19158L7.60268 0.824297Z"/></g><defs><filter id="filter0_ii" width="15.763" height="18.089" x=".617" y="-.734" color-interpolation-filters="sRGB" filterUnits="userSpaceOnUse"><feFlood flood-opacity="0" result="BackgroundImageFix"/><feBlend in="SourceGraphic" in2="BackgroundImageFix" mode="normal" result="shape"/><feColorMatrix in="SourceAlpha" result="hardAlpha" type="matrix" values="0 0 0 0 0 0 0 0 0 0 0 0 0 0 0 0 0 0 127 0"/><feOffset dy="-2"/><feGaussianBlur stdDeviation=".5"/><feComposite in2="hardAlpha" k2="-1" k3="1" operator="arithmetic"/><feColorMatrix type="matrix" values="0 0 0 0 0 0 0 0 0 0 0 0 0 0 0 0 0 0 0.05 0"/><feBlend in2="shape" mode="normal" result="effect1_innerShadow"/><feColorMatrix in="SourceAlpha" result="hardAlpha" type="matrix" values="0 0 0 0 0 0 0 0 0 0 0 0 0 0 0 0 0 0 127 0"/><feOffset dy="2"/><feGaussianBlur stdDeviation="1"/><feComposite in2="hardAlpha" k2="-1" k3="1" operator="arithmetic"/><feColorMatrix type="matrix" values="0 0 0 0 1 0 0 0 0 1 0 0 0 0 1 0 0 0 0.05 0"/><feBlend in2="effect1_innerShadow" mode="normal" result="effect2_innerShadow"/></filter></defs></svg>